<svg width="140" height="32" viewBox="0 0 140 32" fill="none" xmlns="http://www.w3.org/2000/svg">
<path fill-rule="evenodd" clip-rule="evenodd" d="M30.9859 10.5569C29.9419 4.97472 25.1155 0.972547 19.3217 0.962639C18.3317 0.941921 17.2247 1.11127 16.1392 1.42564C15.17 1.70668 14.244 2.09312 13.3919 2.63269C12.7667 3.02813 12.4794 3.63075 12.5821 4.36129C12.6892 5.12335 13.1333 5.63409 13.8918 5.85388C14.4539 6.01602 14.9493 5.85658 15.4375 5.58455C17.1968 4.6036 19.0821 4.30364 21.0458 4.70538C26.4748 5.81605 29.224 11.7792 26.5766 16.6506L26.5478 16.7035C26.4641 16.8572 26.3799 17.0117 26.3226 17.1749C25.8668 18.472 26.9657 19.7574 28.3205 19.5232C28.9303 19.4169 29.342 19.0602 29.6356 18.5351C31.0337 16.0354 31.512 13.37 30.9859 10.5569ZM12.3961 22.3173L12.3961 22.3173L12.3961 22.3173L12.3961 22.3172L12.3961 22.3172L12.3962 22.3172L12.3962 22.3172L12.3962 22.3172L12.3962 22.3171L12.3962 22.3171L12.3962 22.3171L12.3962 22.3171L12.3962 22.3171L12.3962 22.3171L12.3963 22.317L12.3963 22.317L12.3963 22.317L12.3963 22.317L12.3963 22.317L12.3963 22.317L12.3963 22.3169L12.3963 22.3169L12.3963 22.3169L12.3964 22.3168L12.3965 22.3166C12.4258 22.2699 12.4553 22.2228 12.4872 22.1771L12.489 22.1789L12.6549 22.29L12.655 22.29C12.7255 22.3373 12.7644 22.3634 12.8034 22.3888C15.9246 24.4219 19.2791 24.9317 22.8633 23.9165C23.7758 23.658 24.6397 23.2797 25.4459 22.7797C26.1665 22.3321 26.462 21.4952 26.2061 20.708C25.9566 19.9396 25.2486 19.4649 24.4109 19.4838C24.009 19.4935 23.6773 19.6729 23.3411 19.8548L23.3209 19.8657C20.0862 21.6123 16.1147 21.0052 13.5556 18.374C11.1045 15.8536 10.5677 11.9938 12.2287 8.84467C12.2546 8.79574 12.2815 8.74718 12.3084 8.69861C12.3761 8.57638 12.4438 8.4541 12.4953 8.32582C12.7782 7.6187 12.6701 6.96023 12.1521 6.40895C11.6495 5.87299 11.0136 5.70815 10.301 5.92704C9.81732 6.07566 9.48223 6.40355 9.23452 6.83772C8.29771 8.48075 7.78066 10.2508 7.70319 12.1352C7.5978 14.7087 8.25267 17.085 9.6759 19.2415C9.72158 19.31 9.76413 19.3807 9.8067 19.4515C9.82457 19.4812 9.84245 19.511 9.86056 19.5405L9.92722 19.6351C9.87998 19.6693 9.83098 19.7016 9.78203 19.7338C9.67882 19.8016 9.57588 19.8694 9.49034 19.9549C6.78217 22.6532 4.0785 25.355 1.37483 28.0569L1.37459 28.0571L1.37382 28.0579L1.3734 28.0583C1.34893 28.0828 1.3242 28.1071 1.29943 28.1315L1.29942 28.1315L1.2994 28.1315L1.29934 28.1316L1.29927 28.1316L1.29917 28.1318C1.19547 28.2338 1.09128 28.3363 1.00408 28.4511C0.547386 29.0519 0.456407 29.714 0.772581 30.3959C1.08785 31.0759 1.64364 31.4426 2.40209 31.4858C3.03084 31.5209 3.52537 31.2624 3.96135 30.8246C5.49366 29.2883 7.02878 27.7545 8.56388 26.2207C9.77576 25.0099 10.9876 23.799 12.1981 22.587C12.2757 22.5093 12.3354 22.4141 12.3961 22.3173ZM61.3138 12.0317L61.3138 12.0318C61.2804 12.068 61.2467 12.1046 61.2122 12.1414V12.1423C60.3321 10.6137 58.1846 10.3957 56.8128 12.0009V11.1659C56.102 11.0866 54.4914 11.1127 54.1834 11.2028C54.0906 12.0667 54.132 22.4545 54.2311 22.7761H57.2055V22.2527V14.6997C57.2055 14.6679 57.2049 14.636 57.2043 14.6041C57.203 14.5312 57.2017 14.458 57.2073 14.3853C57.2379 14.007 57.5901 13.6692 57.982 13.6376C58.3873 13.6052 58.6377 13.7971 58.7152 14.2574C58.772 14.5952 58.7999 14.942 58.8008 15.2852C58.8055 16.8036 58.8052 18.3224 58.8049 19.8411V19.8446C58.8048 20.6627 58.8047 21.4807 58.8053 22.2986C58.8053 22.4068 58.8115 22.5146 58.8183 22.6326C58.8215 22.6885 58.8249 22.7468 58.8278 22.8085C59.171 22.8055 59.509 22.8079 59.845 22.8104H59.8453H59.8455H59.8457H59.8459H59.8461H59.8464H59.8466H59.8468H59.847H59.8472H59.8474H59.8476H59.8478H59.848H59.8482H59.8484H59.8487H59.8489H59.8491H59.8493H59.8495H59.8497H59.8499H59.8501H59.8503H59.8505C60.5174 22.8152 61.1767 22.82 61.8535 22.7824V22.2473L61.8534 20.5611V20.561V20.5609V20.5608V20.5608V20.5607V20.5606V20.5605V20.5604V20.5603V20.5602V20.5602V20.5601V20.56V20.5599V20.5598V20.5597V20.5596V20.5595V20.5595V20.5594V20.5593V20.5592V20.5591V20.559V20.5589V20.5589C61.8532 18.8736 61.8531 17.1886 61.8544 15.5032L61.8544 15.4432V15.4431C61.8542 15.163 61.8541 14.8817 61.8869 14.6051C61.913 14.3862 61.9778 14.1655 62.0643 13.9628C62.1796 13.6953 62.4246 13.6268 62.6994 13.634C62.966 13.6412 63.1705 13.7556 63.2623 14.0052C63.3335 14.1988 63.383 14.4069 63.4047 14.6123C63.4292 14.8461 63.4287 15.0842 63.4282 15.3209V15.3209V15.3209V15.321V15.321V15.321V15.3211V15.3211V15.3211V15.3212V15.3212V15.3212V15.3213V15.3213V15.3213V15.3213V15.3214V15.3214V15.3214V15.3215V15.3215V15.3215V15.3216V15.3216V15.3216V15.3217V15.3217L63.4281 15.4203C63.429 16.5595 63.429 17.6989 63.429 18.8384C63.429 19.9767 63.429 21.1152 63.4299 22.2536C63.4299 22.3694 63.4368 22.4852 63.4438 22.6023V22.6023V22.6024V22.6024V22.6025V22.6025V22.6025V22.6026V22.6026V22.6027V22.6027V22.6028V22.6028V22.6029V22.6029V22.603V22.603V22.6031V22.6031V22.6032V22.6033V22.6033V22.6034V22.6034V22.6035V22.6035V22.6036L63.4439 22.6043C63.4473 22.6615 63.4507 22.719 63.4533 22.777H66.4628C66.4656 22.7314 66.4687 22.6894 66.4717 22.6498C66.4775 22.5719 66.4826 22.5033 66.4826 22.4347C66.4824 21.7943 66.4825 21.1538 66.4825 20.5134C66.4827 18.5911 66.4829 16.6688 66.4754 14.7465C66.4727 13.9331 66.3619 13.1332 66.0368 12.3774C65.7431 11.6947 65.2648 11.1983 64.5279 11.0101C63.3786 10.7155 62.3607 10.9542 61.5166 11.8163C61.4479 11.8862 61.3815 11.9582 61.3138 12.0317ZM43.4654 22.7865H40.4622V11.161H43.0663L43.0683 11.2179C43.0724 11.3318 43.0766 11.4536 43.079 11.5753C43.0801 11.6604 43.0798 11.7458 43.0794 11.8398V11.8406V11.8413V11.8421V11.8429V11.8437C43.0792 11.8929 43.079 11.9445 43.079 11.9996C44.5346 10.2953 46.692 10.7241 47.455 12.1374C47.4791 12.1153 47.5034 12.0942 47.5272 12.0734C47.579 12.0284 47.6289 11.985 47.672 11.9357C48.4981 11.0024 49.5322 10.7205 50.7239 10.988C51.3715 11.134 51.8499 11.5321 52.1696 12.1131C52.5164 12.7428 52.6579 13.43 52.7038 14.1372C52.7398 14.7047 52.7515 15.2748 52.7533 15.8432C52.7572 17.3626 52.7565 18.8823 52.7557 20.4019V20.402V20.4021V20.4022V20.4023V20.4024V20.4025V20.4026V20.4026V20.4027V20.4028V20.4029V20.403V20.4031V20.4032V20.4033V20.4034V20.4035V20.4036V20.4037V20.4037V20.4038V20.4039C52.7554 21.0108 52.7551 21.6176 52.7551 22.2244V22.7811H49.7141V22.273C49.7141 21.7005 49.7143 21.1279 49.7146 20.5552V20.5552V20.5551V20.555V20.5549V20.5548V20.5547C49.7152 18.8356 49.7159 17.1162 49.7105 15.3974C49.7096 15.0244 49.6817 14.6479 49.6213 14.2804C49.5718 13.9786 49.4385 13.7066 49.0773 13.6462C48.6647 13.5778 48.3575 13.7318 48.2476 14.1462C48.1612 14.4741 48.1215 14.8245 48.1206 15.165C48.1125 16.9389 48.1135 18.7134 48.1145 20.4876V20.4898V20.4899C48.1149 21.0816 48.1152 21.6733 48.1152 22.2649V22.7802H45.0814C45.0787 22.7245 45.0753 22.6697 45.0719 22.6155L45.0719 22.615L45.0718 22.6146C45.0651 22.507 45.0586 22.402 45.058 22.2973C45.0573 21.4774 45.0574 20.6576 45.0574 19.8378C45.0575 18.3358 45.0575 16.8339 45.0535 15.3316C45.0526 14.974 45.0373 14.611 44.9724 14.2615C44.8805 13.7678 44.6634 13.6057 44.2509 13.6381C43.8554 13.6697 43.5095 13.993 43.4699 14.3822C43.4602 14.4774 43.4621 14.574 43.4639 14.6706C43.4647 14.7093 43.4654 14.748 43.4654 14.7866V22.246V22.7856V22.7865ZM106.091 22.7888H104.202L102.016 11.5047C102.004 11.5027 101.992 11.5006 101.98 11.4987L101.968 11.4969L101.953 11.4948C101.465 13.9611 100.977 16.4278 100.488 18.899L99.7192 22.7861H97.7897C97.0719 19.0832 96.3633 15.3763 95.6512 11.651L95.6496 11.6424L95.6442 11.6141L95.6194 11.4845C95.3957 10.3144 95.1717 9.14246 94.9469 7.96826H96.6953L97.5716 13.0816C97.9753 15.4375 98.3783 17.789 98.7815 20.1405C98.8094 20.1405 98.8374 20.1423 98.8653 20.1423C99.6264 16.0888 100.388 12.0344 101.152 7.96015H102.79C103.554 12.0254 104.317 16.087 105.08 20.1486L105.163 20.1414C105.53 18.0233 105.896 15.9053 106.264 13.7828L106.276 13.708L106.333 13.3828L106.364 13.2013L106.374 13.1422L106.391 13.0489L107.27 7.97096H108.923C108.958 8.27362 106.319 22.1033 106.091 22.7888ZM82.1506 22.7854H85.2213V22.2899C85.2213 21.9503 85.2215 21.6108 85.2217 21.2713V21.2712V21.2711V21.271V21.2709V21.2708V21.2707V21.2706V21.2705V21.2704V21.2703V21.2702V21.2701V21.27V21.2698V21.2697V21.2696V21.2695V21.2694V21.2693V21.2692V21.2691V21.269C85.2221 20.5909 85.2225 19.9129 85.2213 19.2345C85.2209 18.8306 85.2211 18.4267 85.2213 18.0227V18.021C85.2219 16.8831 85.2225 15.7449 85.2078 14.6072C85.1979 13.8082 85.0484 13.0299 84.6809 12.3084C84.353 11.6643 83.8648 11.1914 83.154 11.0104C82.1037 10.7419 81.1345 10.9113 80.2887 11.6265C80.2334 11.6736 80.1761 11.7183 80.1145 11.7665C80.0817 11.7922 80.0478 11.8188 80.0121 11.8472C79.9819 11.6216 79.9552 11.4254 79.9302 11.2413L79.9202 11.168C79.2365 11.0878 77.6016 11.1122 77.3044 11.1986V22.7782H80.3157V14.0181C80.3355 14.0052 80.3602 13.9905 80.3879 13.9739C80.4534 13.9347 80.5358 13.8853 80.6111 13.8271C81.2273 13.3533 81.92 13.5839 82.0776 14.3405C82.1443 14.6585 82.1479 14.9936 82.1479 15.3215C82.1519 17.0621 82.1514 18.8027 82.1509 20.5432C82.1507 21.124 82.1506 21.7047 82.1506 22.2854V22.7854ZM67.7708 11.1476H67.7715C67.7655 11.178 67.7596 11.2029 67.7544 11.2243L67.7543 11.2249C67.7456 11.2613 67.7392 11.2878 67.7392 11.3143C67.7392 11.9641 67.7386 12.6139 67.7379 13.2637C67.7359 15.2666 67.7339 17.2694 67.7509 19.2718C67.7581 20.0672 67.9086 20.8508 68.2734 21.5751C68.5968 22.2191 69.0715 22.7182 69.7795 22.9019C70.8217 23.1721 71.8018 23.0235 72.6611 22.3245C72.7145 22.2808 72.7697 22.2388 72.8332 22.1906C72.8704 22.1623 72.9105 22.1318 72.9548 22.0975C73.0016 22.3488 73.0394 22.5515 73.0764 22.7479C73.5718 22.8515 75.4031 22.828 75.7075 22.7154V11.1548H72.6611V19.8266C72.6253 19.8657 72.5935 19.9026 72.5636 19.9372L72.5635 19.9373C72.5038 20.0064 72.4518 20.0666 72.3918 20.1176C71.7603 20.6563 71.0334 20.4131 70.8848 19.5987C70.8226 19.2628 70.8073 18.9151 70.8064 18.5719C70.8015 16.7963 70.802 15.0207 70.8025 13.2451L70.8028 11.6485V11.1476H67.7715L67.7717 11.1467L67.7708 11.1476ZM89.4325 17.6132H93.922L93.9229 17.6141C93.9275 17.557 93.9324 17.5074 93.9368 17.4628L93.9368 17.4624L93.9369 17.4619C93.9452 17.3773 93.9517 17.3104 93.9517 17.2439C93.9519 17.0609 93.9525 16.8779 93.9531 16.6949V16.6948C93.9551 16.0992 93.9571 15.5034 93.9454 14.9081C93.9382 14.5658 93.9139 14.2172 93.8409 13.8839C93.5229 12.4256 92.732 11.3816 91.2196 11.006C90.6449 10.8636 90.0639 10.8591 89.4793 10.9546C88.2741 11.1519 87.3697 11.7653 86.8175 12.8643C86.5167 13.4624 86.3752 14.1037 86.3716 14.7703C86.3644 16.2224 86.3644 17.6753 86.3734 19.1274C86.3752 19.4093 86.405 19.6967 86.4635 19.9732C86.7761 21.4604 87.6075 22.4963 89.1235 22.8683C89.5676 22.9782 90.045 23.0143 90.5035 22.9935C92.4267 22.908 93.7247 21.6982 93.9688 19.7715L93.0221 19.4655C92.6056 19.3309 92.1866 19.1955 91.7646 19.0589C91.7254 19.1567 91.6896 19.2518 91.6548 19.3443C91.5846 19.5305 91.5182 19.7066 91.4358 19.875C91.207 20.3434 90.8638 20.5308 90.3882 20.4795C89.9099 20.4281 89.6379 20.175 89.5172 19.6507C89.4172 19.2147 89.4256 18.7764 89.4342 18.3273V18.3271V18.3269V18.3267V18.3265V18.3263V18.3261V18.3259V18.3256V18.3254V18.3252V18.325V18.3248V18.3246V18.3244V18.3242V18.3239V18.3237V18.3235V18.3233V18.3231C89.4387 18.0898 89.4433 17.8535 89.4325 17.6132ZM91.2439 15.6216C91.2329 15.4513 91.2251 15.2849 91.2173 15.1214V15.1212C91.2002 14.7609 91.1838 14.4146 91.1368 14.0722C91.0701 13.5822 90.8143 13.3885 90.3513 13.3822C89.8649 13.375 89.6343 13.5462 89.5136 14.0164C89.4144 14.4039 89.4259 14.7934 89.4376 15.1891V15.1892C89.4418 15.3324 89.4461 15.4765 89.4451 15.6216H91.2439ZM35.4743 7.90798H38.591C38.6811 8.22055 38.7072 22.1971 38.6162 22.7772H35.5022C35.4149 22.4295 35.3878 8.57906 35.4743 7.90798ZM137.463 22.7892H139.074V22.2587C139.074 21.571 139.074 20.8835 139.074 20.196C139.075 18.486 139.075 16.7762 139.073 15.0659C139.072 14.7515 139.068 14.4354 139.041 14.1228C138.99 13.5364 138.852 12.9689 138.568 12.4492C138.203 11.7835 137.657 11.3277 136.907 11.1836C135.823 10.9755 134.818 11.1448 133.972 11.9195C133.932 11.9564 133.89 11.9916 133.834 12.0389C133.802 12.0666 133.764 12.0986 133.719 12.1375V7.96416H132.11V22.7748H133.714V13.622C134.074 13.1058 134.513 12.7725 135.074 12.6419C136.342 12.3465 137.145 12.8392 137.352 13.9994C137.415 14.3507 137.431 14.7137 137.432 15.0713C137.436 16.6236 137.436 18.1755 137.436 19.7275C137.436 20.573 137.436 21.4185 137.436 22.2641C137.436 22.3778 137.444 22.4911 137.452 22.6075C137.456 22.6671 137.46 22.7275 137.463 22.7892ZM114.088 16.2C114.08 15.9262 114.086 15.6562 114.091 15.3892C114.103 14.7699 114.115 14.1672 113.968 13.5724C113.704 12.5023 112.607 12.0987 111.719 12.7653C111.478 12.9465 111.293 13.2047 111.11 13.4591L111.11 13.4594L111.109 13.4596C111.064 13.5225 111.019 13.5851 110.974 13.6463C110.897 13.7493 110.845 13.8705 110.787 14.0042C110.76 14.0681 110.731 14.1349 110.698 14.2039C110.329 14.0219 109.975 13.8463 109.605 13.6634C109.914 12.8707 110.299 12.1825 110.955 11.6943C111.959 10.9466 113.062 10.8737 114.182 11.3736C115.089 11.7781 115.457 12.6005 115.621 13.5202C115.688 13.9012 115.713 14.293 115.715 14.6804C115.722 16.1059 115.721 17.5315 115.72 18.9571C115.72 19.433 115.72 19.909 115.72 20.385V20.6994C115.726 21.4966 115.883 21.6731 116.698 21.765V22.7631C115.767 23.1477 114.999 22.9135 114.302 22.019C114.265 22.0496 114.229 22.0804 114.192 22.1112L114.192 22.1114L114.192 22.1115C114.127 22.1659 114.063 22.2202 113.997 22.2731C113.17 22.9432 112.226 23.1207 111.207 22.8793C110.423 22.6937 109.879 22.1884 109.595 21.4443C109.159 20.3031 109.192 19.1546 109.687 18.0376C110.021 17.2872 110.626 16.8143 111.387 16.527C112.072 16.2685 112.788 16.2225 113.508 16.2C113.622 16.1965 113.736 16.1975 113.865 16.1987C113.934 16.1993 114.008 16.2 114.088 16.2ZM114.063 20.7084V17.4746C113.383 17.426 112.732 17.4395 112.101 17.6611C111.661 17.8151 111.31 18.0889 111.122 18.5267C110.783 19.3185 110.78 20.1283 111.07 20.9291C111.236 21.3876 111.592 21.6407 112.089 21.6867C112.949 21.7659 113.6 21.4335 114.062 20.7075L114.063 20.7084ZM23.7825 14.9622L23.782 14.9613C23.6505 14.7276 23.5107 14.4792 23.3729 14.2333V14.2324C23.9584 13.3911 23.9971 13.1119 23.6494 12.1949C23.7727 12.0773 23.8978 11.9578 24.0225 11.8387L24.0269 11.8344L24.0281 11.8333C24.1748 11.6931 24.3211 11.5534 24.4637 11.4175C24.5099 11.4307 24.5518 11.4443 24.5911 11.457C24.6664 11.4814 24.7318 11.5026 24.7988 11.5121C25.2816 11.5805 25.6735 11.2662 25.6987 10.7986C25.723 10.3392 25.342 9.94921 24.8889 9.96993C24.425 9.99065 24.0998 10.3834 24.1565 10.8617C24.1659 10.9405 24.1858 11.0175 24.2059 11.0949L24.2059 11.0949L24.2059 11.095L24.2059 11.095L24.2059 11.0951C24.215 11.1301 24.2241 11.1651 24.2322 11.2004L24.0311 11.3909L23.4296 11.9607C22.9144 11.5175 22.3469 11.422 21.7073 11.6274C21.4372 11.1476 21.1705 10.6746 20.9077 10.2083L20.2607 9.06014C20.5633 8.53859 20.566 8.19539 20.2949 7.90624C20.0616 7.65852 19.695 7.58916 19.386 7.73419C19.0266 7.90264 18.9068 8.22241 18.9861 8.83044L18.7238 9.03899C18.3165 9.36288 17.9064 9.68898 17.5061 10.0078C16.6575 9.49612 16.2108 9.53935 15.4208 10.1906C15.2981 10.1269 15.1719 10.0617 15.0496 9.99839L15.0484 9.99778L14.8605 9.90057C14.8605 9.32046 14.6794 9.0196 14.2903 8.90791C13.9507 8.81062 13.5769 8.96375 13.4012 9.27182C13.2202 9.588 13.2634 9.97894 13.5381 10.214C13.6561 10.3158 13.8183 10.3852 13.9723 10.4221C14.2534 10.4897 14.4885 10.3465 14.6902 10.1672C14.9019 10.2816 15.0839 10.3798 15.2794 10.4852C15.1037 11.3607 15.3892 11.9805 16.2738 12.3029C16.2087 12.6798 16.1438 13.0538 16.0793 13.4252L16.0792 13.4259L16.0792 13.426C16.0144 13.7991 15.9501 14.1696 15.8865 14.5378C15.3577 14.6531 15.0109 14.8999 14.9713 15.4323C14.9416 15.8331 15.1217 16.1358 15.4757 16.3105C16.0009 16.57 16.3936 16.3159 16.7287 15.9268L17.5295 16.1889L17.8376 16.2898C18.0249 17.1194 18.4501 17.4969 19.0338 17.3158C19.2446 17.2509 19.45 17.0771 19.5914 16.9005C19.8301 16.6033 19.7517 16.2565 19.5914 15.9367C20.2156 15.3719 20.8128 14.8305 21.4029 14.2955C21.592 14.3937 21.7497 14.4756 21.9424 14.5765L21.8608 15.1606C21.8117 15.5122 21.7626 15.8641 21.7127 16.2177C21.6772 16.2325 21.6426 16.2461 21.609 16.2593L21.6089 16.2593L21.6089 16.2593L21.6088 16.2593C21.5403 16.2862 21.4756 16.3115 21.4146 16.343C21.0705 16.5195 20.9209 16.8258 20.993 17.1987C21.0588 17.5419 21.3272 17.7806 21.6767 17.8076C22.0622 17.8373 22.3397 17.6644 22.4829 17.2978C22.5123 17.222 22.5343 17.1433 22.5571 17.0617L22.5572 17.0615C22.5672 17.0258 22.5773 16.9895 22.5883 16.9528C22.9405 16.8492 23.2828 16.7483 23.6134 16.6501C24.0755 17.0834 24.3691 17.1528 24.7421 16.9303C25.0348 16.7555 25.1843 16.415 25.0808 16.079C25.0339 15.9295 24.9501 15.7439 24.8276 15.6755C24.6753 15.5897 24.5024 15.5399 24.3064 15.4836C24.2185 15.4583 24.126 15.4316 24.0286 15.3998L23.7825 14.9622ZM18.2335 14.4628C18.7292 14.2803 19.2095 14.1031 19.6824 13.9288L19.6867 13.9272L20.8282 13.5064C20.8147 13.229 20.8029 12.9948 20.7903 12.7452C20.1087 12.4889 19.4334 12.2354 18.7634 11.9839L17.7466 11.6021C17.6237 11.75 17.518 11.8775 17.4178 11.9983L17.3295 12.1048C17.6312 12.8908 17.9238 13.6543 18.2335 14.4628ZM18.4513 9.66264L19.1608 9.09347L19.1617 9.09257L19.2397 9.10872L19.241 9.10898C19.5096 9.16462 19.7362 9.21155 20.013 9.26822L20.5535 10.2272L20.5557 10.231C20.8427 10.7399 21.1371 11.2622 21.4326 11.7868C21.3938 11.8187 21.363 11.8442 21.3322 11.8697L21.2506 11.9372C20.9316 11.669 20.6165 11.4047 20.3102 11.1478L20.3099 11.1475L20.2355 11.0851C20.2958 10.4554 20.1156 10.1159 19.6725 9.99515C19.2725 9.88615 18.9545 10.0879 18.6636 10.6599C18.4982 10.6691 18.3242 10.6782 18.1449 10.6877L17.8853 10.7014L17.8311 10.5864L17.8306 10.5855C17.7846 10.488 17.7399 10.3933 17.6853 10.2771L18.4513 9.66264ZM17.4702 13.3581L17.9322 14.5675V14.5684L17.5762 14.7008L16.7206 15.0188C16.6349 14.9473 16.5504 14.8773 16.4615 14.8036C16.3812 14.737 16.2972 14.6674 16.2054 14.5909C16.3297 13.8667 16.4576 13.1191 16.5891 12.348C16.6885 12.3205 16.7849 12.2943 16.8908 12.2655L17.0377 12.2255L17.4702 13.3581ZM23.4289 14.9804L23.4296 14.9818L23.4337 14.989C23.554 15.2024 23.6736 15.4144 23.789 15.6196H23.7899L23.6983 15.8309C23.6268 15.9958 23.5556 16.1598 23.472 16.3538C23.3308 16.3967 23.177 16.4432 23.0181 16.4913L23.0161 16.492L23.0153 16.4922C22.8414 16.5449 22.6616 16.5993 22.4856 16.6528C22.3257 16.5207 22.1935 16.4113 22.0388 16.2832L22.0359 16.2808L22.0327 16.2782L22.0217 16.2691L22.0659 15.9722L22.0664 15.9687L22.0682 15.9566L22.0687 15.9535L22.0697 15.9466C22.1347 15.5104 22.2006 15.067 22.2649 14.6324C22.5586 14.5594 22.8144 14.4955 23.1134 14.4207L23.4289 14.9804ZM21.1732 14.0703C20.5786 14.6126 19.994 15.1449 19.4202 15.6674H19.4193L19.2126 15.6165C19.015 15.5679 18.8326 15.5231 18.6149 15.4692L18.4819 15.113L18.3483 14.7558C18.8927 14.5563 19.4252 14.3607 19.9559 14.1656L19.9616 14.1635L19.9625 14.1632L20.9462 13.8019L21.1732 14.0703ZM20.8632 12.0271L21.0444 12.1795C20.9902 12.2772 20.9561 12.3399 20.9008 12.4418L20.8984 12.4462L17.8844 11.3139V11.0509C18.1555 11.0202 18.4186 10.9905 18.5897 10.9707C18.6775 11.0392 18.756 11.11 18.83 11.1767C18.9844 11.3159 19.1187 11.437 19.2752 11.4814C19.4319 11.5265 19.6104 11.4953 19.8167 11.4593C19.9152 11.4421 20.0201 11.4237 20.1319 11.4121C20.3311 11.5794 20.5832 11.7915 20.8632 12.0271ZM17.4047 15.8119L16.8215 15.625L16.8224 15.6241C16.8187 15.5993 16.8148 15.578 16.8114 15.5589L16.8114 15.5589C16.8049 15.5227 16.7999 15.4948 16.7999 15.4665C16.7999 15.4374 16.8058 15.4078 16.8134 15.3705L16.8134 15.3704L16.8134 15.3704C16.8168 15.3535 16.8205 15.335 16.8242 15.3143C17.1114 15.2097 17.4012 15.1037 17.7117 14.9901L18.0321 14.8729L18.3357 15.6052L18.2038 15.7546C18.1371 15.8303 18.0674 15.9092 17.988 15.9989L17.4047 15.8119ZM130.367 13.7336L129.747 13.9741L129.222 14.1777C129.195 14.1139 129.169 14.0518 129.143 13.9912L129.141 13.9854L129.14 13.9821L129.139 13.9816L129.139 13.9807C129.083 13.8466 129.029 13.7196 128.97 13.5958C128.545 12.6986 127.775 12.3365 126.827 12.5743C126.34 12.6968 125.975 12.9824 125.815 13.4454C125.675 13.8498 125.563 14.2849 125.555 14.7082C125.526 16.2648 125.53 17.8231 125.553 19.3797C125.558 19.7616 125.639 20.1562 125.76 20.5201C125.959 21.1218 126.398 21.4884 127.042 21.5659C127.743 21.6506 128.367 21.5001 128.767 20.8633C128.895 20.6587 128.996 20.4362 129.103 20.1996C129.153 20.0892 129.204 19.9759 129.26 19.8598L129.945 20.091L130.404 20.2462C130.396 20.2881 130.39 20.3288 130.385 20.3682C130.373 20.4509 130.361 20.5277 130.332 20.5967C130.319 20.6281 130.305 20.6597 130.292 20.6914C130.275 20.7315 130.258 20.7718 130.242 20.8121L130.241 20.8124C130.133 21.0721 130.025 21.3327 129.879 21.5695C129.232 22.6144 128.249 23.0351 127.053 22.9711C124.998 22.8621 124.006 21.4398 123.931 19.6364C123.866 18.059 123.893 16.4763 123.92 14.896L123.928 14.4713C123.935 14.0462 124.045 13.6093 124.181 13.2021C124.605 11.9347 125.599 11.2006 126.933 11.1186C128.673 11.0114 129.964 11.9816 130.368 13.7336H130.367ZM122.367 21.9096C122.337 21.7587 122.306 21.6064 122.274 21.4486C122.187 21.4708 122.106 21.4933 122.029 21.5148C121.865 21.5603 121.718 21.6013 121.568 21.6251C120.865 21.7368 120.365 21.4017 120.206 20.7099C120.159 20.5073 120.139 20.2956 120.139 20.0875C120.134 17.8851 120.135 15.6836 120.137 13.4812C120.137 13.405 120.146 13.3288 120.157 13.2409C120.162 13.1978 120.168 13.152 120.173 13.1019H122.431V11.7454H120.123V9.16013H118.957L118.769 10.3633L118.563 11.6724L118.129 11.7145L118.127 11.7147L118.117 11.7157C117.824 11.7441 117.541 11.7715 117.261 11.7985V12.9119C117.528 12.9745 117.787 13.0353 118.05 13.0973L118.483 13.1992V13.7118L118.483 15.4462C118.483 16.8903 118.482 18.3344 118.484 19.7785L118.484 19.8088V19.8089V19.8089V19.809V19.8091V19.8091V19.8092V19.8093V19.8094V19.8094V19.8095V19.8096V19.8096V19.8097V19.8098C118.485 20.1291 118.486 20.4492 118.514 20.7667C118.635 22.1395 119.362 22.8988 120.658 22.9736C121.31 23.0114 121.933 22.8817 122.476 22.4503C122.439 22.2675 122.403 22.0896 122.367 21.9096ZM25.7066 12.8364C26.0849 12.8436 26.3894 13.1454 26.3966 13.5192C26.4038 13.9057 26.0777 14.22 25.6769 14.2137C25.2967 14.2074 24.9896 13.9048 24.9869 13.5345C24.9842 13.1454 25.3094 12.8292 25.7066 12.8364ZM13.999 14.4124C14.0206 14.0188 13.7161 13.681 13.327 13.6675H13.3279C12.9595 13.6549 12.6379 13.9539 12.619 14.3277C12.5973 14.7313 12.8919 15.0583 13.2864 15.0718C13.6531 15.0844 13.9782 14.7835 13.999 14.4124ZM18.9406 18.5397C19.3351 18.5541 19.6297 18.8847 19.6063 19.2864C19.5846 19.6593 19.2613 19.9584 18.8937 19.944C18.5082 19.9287 18.1974 19.5828 18.2218 19.1963C18.2452 18.8297 18.5767 18.5262 18.9406 18.5397ZM13.298 12.758C13.6871 12.7634 14.0051 12.4391 13.9997 12.0446C13.9943 11.669 13.6889 11.3618 13.3169 11.3555C12.9242 11.3492 12.6125 11.6681 12.6179 12.0698C12.6233 12.4473 12.9251 12.7526 13.298 12.758ZM15.847 18.68C15.4642 18.6611 15.1417 18.3017 15.1723 17.9287C15.2021 17.5648 15.5434 17.2594 15.902 17.2757C16.2848 17.2928 16.6073 17.6531 16.5748 18.0278C16.5433 18.3944 16.2046 18.698 15.8461 18.68H15.847ZM22.6795 10.4217C23.0669 10.4271 23.383 10.1019 23.3758 9.70648C23.3686 9.31914 23.075 9.02549 22.6948 9.02369C22.2994 9.02188 21.9841 9.34166 21.9931 9.7362C22.0021 10.1109 22.3075 10.4163 22.6795 10.4217ZM19.7708 6.24826C19.7708 6.6374 19.4897 6.92475 19.1024 6.93375C18.698 6.94276 18.3881 6.6437 18.389 6.24466C18.389 5.84831 18.7052 5.54565 19.106 5.55646C19.487 5.56727 19.7726 5.86362 19.7717 6.24826H19.7708ZM16.1419 8.18479C16.5428 8.2037 16.8679 7.90825 16.8769 7.5146C16.886 7.13808 16.5968 6.82731 16.2203 6.80929C15.8122 6.78948 15.4997 7.07773 15.4915 7.48037C15.4834 7.87041 15.7573 8.16677 16.1419 8.18479ZM23.3775 7.40604C23.3811 7.81229 23.0802 8.10955 22.674 8.10324C22.2938 8.09694 21.9966 7.79968 21.993 7.42315C21.9894 7.02681 22.3028 6.71784 22.701 6.72415C23.0802 6.72955 23.3739 7.02591 23.3775 7.40604ZM17.5751 8.87574C17.7495 8.87035 17.9105 8.70425 17.9128 8.52624C17.9146 8.34158 17.7633 8.18034 17.5814 8.17313C17.3796 8.16503 17.2156 8.33527 17.2255 8.54245C17.2346 8.72621 17.3976 8.88115 17.5751 8.87574ZM14.3417 16.7064C14.3318 16.8847 14.1642 17.0388 13.9832 17.0352C13.8066 17.0316 13.64 16.8658 13.6373 16.6911C13.6346 16.4929 13.8165 16.3281 14.021 16.3452C14.2056 16.3605 14.3516 16.5253 14.3426 16.7073L14.3417 16.7064ZM24.3638 8.42638C24.2674 8.58942 24.3683 8.71733 24.6791 8.89118V8.89209C25.0043 8.72724 25.0853 8.62005 25.0241 8.43449C24.9727 8.27865 24.8583 8.15164 24.698 8.18677C24.5728 8.2147 24.4296 8.31649 24.3638 8.42638ZM21.9003 19.0131C21.84 19.268 21.7031 19.396 21.4499 19.3455C21.2842 19.3122 21.1959 19.1969 21.1905 19.0302C21.1851 18.8636 21.2698 18.7384 21.4292 18.697C21.6733 18.6339 21.8274 18.7447 21.8994 19.0131H21.9003ZM19.2693 13.1948C19.2738 13.0092 19.1252 12.8534 18.9378 12.8443L18.9369 12.8452C18.746 12.8362 18.591 12.9723 18.5748 13.1605C18.5577 13.365 18.7208 13.5425 18.9225 13.5398C19.0991 13.537 19.2657 13.3713 19.2693 13.1948Z" fill="#00375D"/>
</svg>
